<svg xmlns="http://www.w3.org/2000/svg" viewBox="0 0 200 184">
  <defs>
    <linearGradient id="ag" x1="0.5" y1="0" x2="0.35" y2="1">
      <stop offset="0%" stop-color="#EA4335"/>
      <stop offset="18%" stop-color="#FBBC04"/>
      <stop offset="32%" stop-color="#34A853"/>
      <stop offset="50%" stop-color="#18B8A8"/>
      <stop offset="100%" stop-color="#4285F4"/>
    </linearGradient>
  </defs>
  <g transform="translate(0,184) scale(0.1,-0.1)">
    <path fill="url(#ag)" d="M905 1827 c-84 -28 -139 -70 -200 -151 -84 -113 -142 -262 -249 -636 -148 -523 -214 -674 -369 -853 -96 -110 -108 -143 -62 -173 37 -24 107 -12 171 30 133 89 233 207 375 449 101 168 153 237 217 287 117 90 291 93 418 7 63 -42 123 -118 209 -264 112 -190 159 -257 237 -339 135 -143 231 -198 304 -174 67 23 56 73 -38 179 -141 156 -222 338 -353 793 -102 357 -143 476 -203 593 -54 105 -142 199 -217 234 -61 29 -181 37 -240 18z"/>
  </g>
</svg>
